<svg width="36" height="36" viewBox="0 0 36 36" fill="none" xmlns="http://www.w3.org/2000/svg">
<path d="M18 21.5998C22.374 21.5998 25.2 18.3238 25.2 11.6998C25.2 5.07581 22.374 1.7998 18 1.7998C13.626 1.7998 10.8 5.1298 10.8 11.7538C10.8 18.3778 13.626 21.5998 18 21.5998ZM31.752 28.6378L24.282 25.2718C22.4802 26.3572 20.3058 26.9998 17.982 26.9998C15.6582 26.9998 13.4838 26.3572 11.6262 25.2412L4.248 28.6918C1.7226 29.8474 0 32.3512 0 35.2582C0 35.26 0 35.26 0 35.2618V35.9998H36V35.2618C36 35.2618 36 35.26 36 35.2582C36 32.3512 34.2774 29.8474 31.797 28.7098L31.752 28.6378Z" fill="#183060"/>
</svg>
