<svg width="36" height="36" viewBox="0 0 36 36" fill="none" xmlns="http://www.w3.org/2000/svg">
<g clip-path="url(#clip0_4631_1945)">
<path d="M18 0C8.05896 0 0 8.05896 0 18C0 27.941 8.05896 36 18 36C27.941 36 36 27.941 36 18C36 8.05896 27.941 0 18 0Z" fill="#183060"/>
<path d="M29.417 10.9944L18.198 3.70656C18.095 3.6396 17.9618 3.63888 17.8596 3.70656L6.63479 10.985C6.54623 11.0419 6.49295 11.1406 6.49295 11.2457L6.49079 17.1792C6.49079 17.4262 6.76439 17.5745 6.97175 17.4406L17.8574 10.373C17.9604 10.3061 18.0936 10.3061 18.1958 10.373L29.0758 17.4499C29.2831 17.5846 29.5567 17.4362 29.5567 17.1893L29.5589 11.2558C29.5589 11.1506 29.5056 11.0513 29.417 10.9944Z" fill="url(#paint0_linear_4631_1945)"/>
<path d="M27.2671 19.4954L18.1944 13.6008C18.0914 13.5338 17.9582 13.5338 17.856 13.6008L8.77823 19.4875C8.68967 19.5444 8.63639 19.643 8.63639 19.7482L8.63423 24.4397C8.63423 24.6859 8.90783 24.835 9.11519 24.701L17.8538 19.0267C17.9568 18.9605 18.09 18.9605 18.193 19.0267L26.9266 24.7082C27.1339 24.8429 27.4075 24.6938 27.4075 24.4476L27.4097 19.7561C27.4097 19.651 27.3557 19.5523 27.2671 19.4954Z" fill="url(#paint1_linear_4631_1945)"/>
<path d="M25.2331 26.9086L18.1555 22.3106C18.0756 22.2588 17.9712 22.2588 17.8913 22.3106L10.8101 26.9028C10.741 26.9474 10.6992 27.0245 10.6992 27.1066L10.6978 30.7663C10.6978 30.9586 10.9116 31.0745 11.0729 30.9701L17.8898 26.5442C17.9698 26.4924 18.0742 26.4924 18.1548 26.5442L24.9674 30.9766C25.1287 31.0817 25.3426 30.9658 25.3426 30.7735L25.344 27.1138C25.344 27.0317 25.3022 26.9546 25.2331 26.91V26.9086Z" fill="url(#paint2_linear_4631_1945)"/>
</g>
<defs>
<linearGradient id="paint0_linear_4631_1945" x1="0" y1="0" x2="36" y2="36" gradientUnits="userSpaceOnUse">
<stop stop-color="#DCC58E"/>
<stop offset="1" stop-color="#FCE1A4"/>
</linearGradient>
<linearGradient id="paint1_linear_4631_1945" x1="0" y1="0" x2="36" y2="36" gradientUnits="userSpaceOnUse">
<stop stop-color="#DCC58E"/>
<stop offset="1" stop-color="#FCE1A4"/>
</linearGradient>
<linearGradient id="paint2_linear_4631_1945" x1="0" y1="0" x2="36" y2="36" gradientUnits="userSpaceOnUse">
<stop stop-color="#DCC58E"/>
<stop offset="1" stop-color="#FCE1A4"/>
</linearGradient>
<clipPath id="clip0_4631_1945">
<rect width="36" height="36" fill="white"/>
</clipPath>
</defs>
</svg>
