<svg width="36" height="36" viewBox="0 0 36 36" fill="none" xmlns="http://www.w3.org/2000/svg">
<g clip-path="url(#clip0_4631_2067)">
<path d="M2.13358 12.9376H0.924066C0.772876 12.9376 -0.13426 12.9376 0.0169295 11.8792C0.470498 9.91378 1.52882 5.68048 2.13358 3.71502C2.28477 2.35431 3.19191 1.29599 4.40142 0.993607C7.12283 0.691228 9.99543 0.540039 12.868 0.540039C14.0775 0.691228 15.1359 1.29599 15.8918 2.35431L19.8227 6.7388L22.9977 2.95907C24.3584 1.44718 24.6608 0.540039 27.231 0.691228C29.8012 0.691228 32.3715 0.842418 35.0929 1.1448C36 1.29599 36 1.74955 36 2.35431C36 7.49475 36 33.0458 36 33.0458C36 33.8017 35.3952 34.5576 34.6393 34.5576C32.9762 34.7088 29.3477 35.0112 26.6263 35.1624C25.2656 35.1624 24.3584 35.4648 24.3584 33.4993C24.3584 31.5339 24.3584 18.834 24.3584 18.834L20.8811 23.8232C20.4275 24.5791 19.9739 25.0327 18.9156 23.8232L14.8335 18.9851C14.8335 18.9851 14.8335 29.8708 14.8335 33.6505C14.8335 35.0112 14.8335 35.4648 13.0192 35.4648C11.2049 35.4648 3.79666 35.0112 3.79666 35.0112C3.79666 35.0112 2.13358 34.5576 2.13358 33.4993V12.9376Z" fill="#183060"/>
</g>
<defs>
<clipPath id="clip0_4631_2067">
<rect width="36" height="36" fill="white"/>
</clipPath>
</defs>
</svg>
