<svg width="36" height="36" viewBox="0 0 36 36" fill="none" xmlns="http://www.w3.org/2000/svg">
<path d="M27.894 25.551C27.894 31.3218 23.1982 36 17.4057 36C11.6131 36 6.91734 31.3218 6.91734 25.551C6.91734 19.7802 11.6131 15.102 17.4057 15.102C23.1982 15.102 27.894 19.7802 27.894 25.551ZM17.4057 16.7904C12.5491 16.7904 8.61209 20.7126 8.61209 25.551C8.61209 30.3894 12.5491 34.3116 17.4057 34.3116C22.2623 34.3116 26.1993 30.3894 26.1993 25.551C26.1993 20.7126 22.2623 16.7904 17.4057 16.7904ZM17.4057 17.9658C13.1995 17.9658 9.79192 21.3624 9.79192 25.551C9.79192 29.7396 13.2013 33.1362 17.4057 33.1362C21.6118 33.1362 25.0194 29.7396 25.0194 25.551C25.0194 21.3624 21.61 17.9658 17.4057 17.9658ZM16.0416 14.0544L17.3424 11.6046L11.6746 0L3.6001 0.0252L11.8119 15.6258C13.0622 14.8158 14.4986 14.2704 16.0416 14.0544ZM18.141 14.022C20.4718 14.022 22.6236 14.7636 24.3889 16.0146L32.4001 0.6318H24.7629L17.534 14.0544C17.7363 14.0436 17.9369 14.0238 18.1428 14.0238L18.141 14.022Z" fill="#183060"/>
</svg>
