<svg width="36" height="36" viewBox="0 0 36 36" fill="none" xmlns="http://www.w3.org/2000/svg">
<g clip-path="url(#clip0_4631_1959)">
<path fill-rule="evenodd" clip-rule="evenodd" d="M6.92308 2.69971C6.48726 2.69971 6.07688 2.90583 5.81539 3.25607L0.276924 10.6743C-0.105346 11.1863 -0.0904637 11.8942 0.312983 12.3896L16.9284 32.7896C17.1913 33.1124 17.5847 33.2997 18 33.2997C18.4153 33.2997 18.8087 33.1124 19.0716 32.7896L35.687 12.3896C36.0905 11.8942 36.1054 11.1863 35.7231 10.6743L30.1846 3.25607C29.9231 2.90583 29.5127 2.69971 29.0769 2.69971H6.92308ZM7.21159 6.02236L3.80778 10.5814H10.6154L7.21159 6.02236ZM3.92878 12.436L15.9702 27.2202L11.7653 12.436H3.92878ZM20.0298 27.2201L32.0712 12.436H24.2348L20.0298 27.2201ZM32.1922 10.5814L28.7884 6.02239L25.3846 10.5814H32.1922ZM26.8846 5.48152H20.1924L23.5385 9.96323L26.8846 5.48152ZM15.8076 5.48152H9.11549L12.4616 9.96323L15.8076 5.48152ZM18 27.6061L13.6853 12.436H22.3147L18 27.6061ZM18 5.63596L14.3077 10.5814H21.6923L18 5.63596Z" fill="#183060"/>
</g>
<defs>
<clipPath id="clip0_4631_1959">
<rect width="36" height="36" fill="white"/>
</clipPath>
</defs>
</svg>
