<svg width="36" height="36" viewBox="0 0 36 36" fill="none" xmlns="http://www.w3.org/2000/svg">
<path d="M27.1735 4.98865C27.7984 4.36381 28.8114 4.36381 29.4363 4.98865L34.1313 9.68365C34.7561 10.3085 34.7561 11.3216 34.1313 11.9464L29.4363 16.6414C28.8114 17.2662 27.7984 17.2662 27.1735 16.6414C26.5487 16.0166 26.5487 15.0035 27.1735 14.3787L29.1372 12.415H25.3799C24.8722 12.415 24.3914 12.6284 24.0516 13.0076L12.8166 25.4876L12.8149 25.4896C11.8647 26.5491 10.5163 27.145 9.1049 27.145H2.9999C2.11625 27.145 1.3999 26.4287 1.3999 25.545C1.3999 24.6614 2.11625 23.945 2.9999 23.945H9.1049C9.61263 23.945 10.0934 23.7317 10.4332 23.3524L10.4358 23.3495L21.6682 10.8724C22.6183 9.81248 23.9682 9.21503 25.3799 9.21503H29.1372L27.1735 7.25139C26.5487 6.62655 26.5487 5.61349 27.1735 4.98865Z" fill="#183060"/>
<path d="M29.4363 19.3586C28.8114 18.7338 27.7984 18.7338 27.1735 19.3586C26.5487 19.9835 26.5487 20.9965 27.1735 21.6214L29.1372 23.585H25.3799C24.8722 23.585 24.3902 23.3703 24.0504 22.9911L20.8854 19.4661C20.2951 18.8086 19.2835 18.7541 18.626 19.3445C17.9684 19.9348 17.914 20.9464 18.5044 21.604L21.6688 25.1283C22.619 26.1886 23.968 26.785 25.3799 26.785H29.1372L27.1735 28.7486C26.5487 29.3735 26.5487 30.3866 27.1735 31.0114C27.7984 31.6362 28.8114 31.6362 29.4363 31.0114L34.1313 26.3164C34.7561 25.6916 34.7561 24.6785 34.1313 24.0536L29.4363 19.3586Z" fill="#183060"/>
<path d="M2.9999 8.85498C2.11625 8.85498 1.3999 9.57133 1.3999 10.455C1.3999 11.3386 2.11625 12.055 2.9999 12.055H9.1049C9.61263 12.055 10.0934 12.2683 10.4332 12.6476L13.9304 16.5351C14.5214 17.192 15.5331 17.2455 16.19 16.6545C16.8469 16.0635 16.9004 15.0518 16.3094 14.3949L12.8154 10.511C11.8652 9.45113 10.5166 8.85498 9.1049 8.85498H2.9999Z" fill="#183060"/>
</svg>
